<svg width="27" height="30" viewBox="0 0 27 30" fill="none" xmlns="http://www.w3.org/2000/svg">
<path d="M23.7083 26.625H3.29167V10.5833H23.7083M19.3333 0.375V3.29167H7.66667V0.375H4.75V3.29167H3.29167C1.67292 3.29167 0.375 4.58958 0.375 6.20833V26.625C0.375 27.3985 0.682291 28.1404 1.22927 28.6874C1.77625 29.2344 2.51812 29.5417 3.29167 29.5417H23.7083C24.4819 29.5417 25.2237 29.2344 25.7707 28.6874C26.3177 28.1404 26.625 27.3985 26.625 26.625V6.20833C26.625 4.58958 25.3125 3.29167 23.7083 3.29167H22.25V0.375M20.7917 16.4167H13.5V23.7083H20.7917V16.4167Z" fill="#177BE5"/>
</svg>
