<svg width="55" height="55" viewBox="0 0 55 55" fill="none" xmlns="http://www.w3.org/2000/svg">
<path d="M16.0423 34.2362L29.9298 20.3487L34.6507 25.0695L20.7632 38.957H16.0423V34.2362ZM27.5007 45.832C32.363 45.832 37.0261 43.9005 40.4643 40.4623C43.9024 37.0242 45.834 32.361 45.834 27.4987C45.834 22.6364 43.9024 17.9732 40.4643 14.5351C37.0261 11.0969 32.363 9.16536 27.5007 9.16536C22.6383 9.16536 17.9752 11.0969 14.537 14.5351C11.0989 17.9732 9.16732 22.6364 9.16732 27.4987C9.16732 32.361 11.0989 37.0242 14.537 40.4623C17.9752 43.9005 22.6383 45.832 27.5007 45.832ZM38.2715 21.4258L35.9798 23.7174L31.2819 19.0195L33.5736 16.7279C34.0548 16.2237 34.8569 16.2237 35.3382 16.7279L38.2715 19.6612C38.7757 20.1424 38.7757 20.9445 38.2715 21.4258ZM27.5007 4.58203C30.5101 4.58203 33.4901 5.17479 36.2705 6.32646C39.0509 7.47813 41.5772 9.16616 43.7052 11.2942C45.8332 13.4222 47.5212 15.9485 48.6729 18.7289C49.8246 21.5092 50.4173 24.4892 50.4173 27.4987C50.4173 33.5766 48.0029 39.4055 43.7052 43.7032C39.4075 48.0009 33.5785 50.4154 27.5007 50.4154C24.4912 50.4154 21.5112 49.8226 18.7308 48.6709C15.9504 47.5193 13.4241 45.8312 11.2961 43.7032C6.99841 39.4055 4.58398 33.5766 4.58398 27.4987C4.58398 21.4208 6.99841 15.5919 11.2961 11.2942C15.5938 6.99646 21.4228 4.58203 27.5007 4.58203Z" fill="#A0A0A0"/>
</svg>
