<svg width="30" height="30" viewBox="0 0 30 30" fill="none" xmlns="http://www.w3.org/2000/svg">
<path d="M17.7375 17.7375L7.5 22.5L12.2625 12.2625L22.5 7.5M15 2.5C13.3585 2.5 11.733 2.82332 10.2165 3.45151C8.69989 4.07969 7.3219 5.00043 6.16117 6.16117C3.81696 8.50537 2.5 11.6848 2.5 15C2.5 18.3152 3.81696 21.4946 6.16117 23.8388C7.3219 24.9996 8.69989 25.9203 10.2165 26.5485C11.733 27.1767 13.3585 27.5 15 27.5C18.3152 27.5 21.4946 26.183 23.8388 23.8388C26.183 21.4946 27.5 18.3152 27.5 15C27.5 13.3585 27.1767 11.733 26.5485 10.2165C25.9203 8.69989 24.9996 7.3219 23.8388 6.16117C22.6781 5.00043 21.3001 4.07969 19.7835 3.45151C18.267 2.82332 16.6415 2.5 15 2.5ZM15 13.625C14.6353 13.625 14.2856 13.7699 14.0277 14.0277C13.7699 14.2856 13.625 14.6353 13.625 15C13.625 15.3647 13.7699 15.7144 14.0277 15.9723C14.2856 16.2301 14.6353 16.375 15 16.375C15.3647 16.375 15.7144 16.2301 15.9723 15.9723C16.2301 15.7144 16.375 15.3647 16.375 15C16.375 14.6353 16.2301 14.2856 15.9723 14.0277C15.7144 13.7699 15.3647 13.625 15 13.625Z" fill="black"/>
</svg>
