<svg width="45" height="45" viewBox="0 0 45 45" fill="none" xmlns="http://www.w3.org/2000/svg">
<path d="M45 22.4999C45 10.0735 34.9264 -9.91821e-05 22.5 -9.91821e-05C10.0736 -9.91821e-05 0 10.0735 0 22.4999C0 33.7303 8.22793 43.0386 18.9844 44.7266V29.0038H13.2715V22.4999H18.9844V17.5429C18.9844 11.9038 22.3435 8.78896 27.483 8.78896C29.9446 8.78896 32.5195 9.22842 32.5195 9.22842V14.7655H29.6823C26.8873 14.7655 26.0156 16.4999 26.0156 18.2793V22.4999H32.2559L31.2583 29.0038H26.0156V44.7266C36.7721 43.0386 45 33.7303 45 22.4999Z" fill="#1877F2"/>
<path d="M31.2583 29.0039L32.2559 22.5H26.0156V18.2794C26.0156 16.5 26.8873 14.7656 29.6823 14.7656H32.5195V9.22852C32.5195 9.22852 29.9446 8.78906 27.483 8.78906C22.3435 8.78906 18.9844 11.9039 18.9844 17.543V22.5H13.2715V29.0039H18.9844V44.7267C20.1299 44.9064 21.304 45 22.5 45C23.696 45 24.8701 44.9064 26.0156 44.7267V29.0039H31.2583Z" fill="white"/>
</svg>
