<svg width="26" height="30" viewBox="0 0 26 30" fill="none" xmlns="http://www.w3.org/2000/svg">
<path d="M13 9.54545C13.3831 9.54545 13.7505 9.68912 14.0214 9.94485C14.2923 10.2006 14.4444 10.5474 14.4444 10.9091C14.4444 11.2707 14.2923 11.6176 14.0214 11.8733C13.7505 12.1291 13.3831 12.2727 13 12.2727C12.6169 12.2727 12.2495 12.1291 11.9786 11.8733C11.7077 11.6176 11.5556 11.2707 11.5556 10.9091C11.5556 10.5474 11.7077 10.2006 11.9786 9.94485C12.2495 9.68912 12.6169 9.54545 13 9.54545ZM26 13.6364C26 21.2045 20.4533 28.2818 13 30C5.54667 28.2818 0 21.2045 0 13.6364V5.45455L13 0L26 5.45455V13.6364ZM13 6.81818C11.8507 6.81818 10.7485 7.24919 9.93587 8.01638C9.12321 8.78358 8.66667 9.82411 8.66667 10.9091C8.66667 12.6955 9.86556 14.2091 11.5556 14.7682V23.1818H14.4444V20.4545H17.3333V17.7273H14.4444V14.7682C16.1344 14.2091 17.3333 12.6955 17.3333 10.9091C17.3333 9.82411 16.8768 8.78358 16.0641 8.01638C15.2515 7.24919 14.1493 6.81818 13 6.81818Z" fill="#8D8D8D"/>
</svg>
