<svg width="75" height="53" viewBox="0 0 75 53" fill="none" xmlns="http://www.w3.org/2000/svg">
<path d="M73.4327 8.22355C72.5702 4.98668 70.0291 2.43779 66.802 1.57273C60.9533 0.000583649 37.5 0.000583649 37.5 0.000583649C37.5 0.000583649 14.0469 0.000583649 8.19797 1.57273C4.97114 2.43779 2.42964 4.98668 1.56721 8.22355C0 14.0901 0 26.3304 0 26.3304C0 26.3304 0 38.5705 1.56721 44.4376C2.42964 47.6741 4.97114 50.2229 8.19797 51.0884C14.0469 52.6602 37.5 52.6602 37.5 52.6602C37.5 52.6602 60.9533 52.6602 66.802 51.0884C70.0291 50.2229 72.5702 47.6741 73.4327 44.4376C75 38.5705 75 26.3304 75 26.3304C75 26.3304 75 14.0901 73.4327 8.22355Z" fill="#ED1D24"/>
<path d="M29.8301 37.4453L49.4324 26.3327L29.8301 15.2189V37.4453Z" fill="white"/>
</svg>
