<svg width="30" height="30" viewBox="0 0 30 30" fill="none" xmlns="http://www.w3.org/2000/svg">
<path d="M22.4983 18.1233V13.7483C22.4983 13.4167 22.3666 13.0988 22.1322 12.8644C21.8978 12.63 21.5798 12.4983 21.2483 12.4983H19.9983C22.7983 10.4858 23.4483 6.58577 21.4358 3.74827C19.4233 0.973267 15.5233 0.323266 12.7108 2.33577C11.8733 2.93577 11.1983 3.74827 10.7483 4.66077C7.81081 2.84827 3.96081 3.74827 2.14831 6.71077C0.348308 9.64827 1.24831 13.4983 4.19831 15.3108C4.46081 15.4608 4.72331 15.6233 4.99831 15.7233V26.2483C4.99831 26.5798 5.13 26.8977 5.36442 27.1322C5.59884 27.3666 5.91679 27.4983 6.24831 27.4983H21.2483C21.5798 27.4983 21.8978 27.3666 22.1322 27.1322C22.3666 26.8977 22.4983 26.5798 22.4983 26.2483V21.8733L27.4983 26.8733V13.1233L22.4983 18.1233ZM16.2483 4.99827C16.9113 4.99827 17.5472 5.26166 18.0161 5.7305C18.4849 6.19934 18.7483 6.83523 18.7483 7.49827C18.7483 8.16131 18.4849 8.79719 18.0161 9.26603C17.5472 9.73487 16.9113 9.99827 16.2483 9.99827C15.5853 9.99827 14.9494 9.73487 14.4805 9.26603C14.0117 8.79719 13.7483 8.16131 13.7483 7.49827C13.7483 6.83523 14.0117 6.19934 14.4805 5.7305C14.9494 5.26166 15.5853 4.99827 16.2483 4.99827ZM7.49831 7.49827C8.16135 7.49827 8.79723 7.76166 9.26607 8.2305C9.73492 8.69934 9.99831 9.33523 9.99831 9.99827C9.99831 10.6613 9.73492 11.2972 9.26607 11.766C8.79723 12.2349 8.16135 12.4983 7.49831 12.4983C6.83527 12.4983 6.19938 12.2349 5.73054 11.766C5.2617 11.2972 4.99831 10.6613 4.99831 9.99827C4.99831 9.33523 5.2617 8.69934 5.73054 8.2305C6.19938 7.76166 6.83527 7.49827 7.49831 7.49827Z" fill="black"/>
</svg>
