<svg width="27" height="27" viewBox="0 0 27 27" fill="none" xmlns="http://www.w3.org/2000/svg">
<path d="M21.4983 17.1233V12.7483C21.4983 12.4167 21.3666 12.0988 21.1322 11.8644C20.8978 11.63 20.5798 11.4983 20.2483 11.4983H18.9983C21.7983 9.48577 22.4483 5.58577 20.4358 2.74827C18.4233 -0.0267335 14.5233 -0.676734 11.7108 1.33577C10.8733 1.93577 10.1983 2.74827 9.74831 3.66077C6.81081 1.84827 2.96081 2.74827 1.14831 5.71077C-0.651692 8.64827 0.248308 12.4983 3.19831 14.3108C3.46081 14.4608 3.72331 14.6233 3.99831 14.7233V25.2483C3.99831 25.5798 4.13 25.8977 4.36442 26.1322C4.59884 26.3666 4.91679 26.4983 5.24831 26.4983H20.2483C20.5798 26.4983 20.8978 26.3666 21.1322 26.1322C21.3666 25.8977 21.4983 25.5798 21.4983 25.2483V20.8733L26.4983 25.8733V12.1233L21.4983 17.1233ZM15.2483 3.99827C15.9113 3.99827 16.5472 4.26166 17.0161 4.7305C17.4849 5.19934 17.7483 5.83523 17.7483 6.49827C17.7483 7.16131 17.4849 7.79719 17.0161 8.26603C16.5472 8.73487 15.9113 8.99827 15.2483 8.99827C14.5853 8.99827 13.9494 8.73487 13.4805 8.26603C13.0117 7.79719 12.7483 7.16131 12.7483 6.49827C12.7483 5.83523 13.0117 5.19934 13.4805 4.7305C13.9494 4.26166 14.5853 3.99827 15.2483 3.99827ZM6.49831 6.49827C7.16135 6.49827 7.79723 6.76166 8.26607 7.2305C8.73492 7.69934 8.99831 8.33523 8.99831 8.99827C8.99831 9.66131 8.73492 10.2972 8.26607 10.766C7.79723 11.2349 7.16135 11.4983 6.49831 11.4983C5.83527 11.4983 5.19938 11.2349 4.73054 10.766C4.2617 10.2972 3.99831 9.66131 3.99831 8.99827C3.99831 8.33523 4.2617 7.69934 4.73054 7.2305C5.19938 6.76166 5.83527 6.49827 6.49831 6.49827Z" fill="white"/>
</svg>
