<svg width="70" height="70" viewBox="0 0 70 70" fill="none" xmlns="http://www.w3.org/2000/svg">
<circle cx="35" cy="35" r="35" transform="rotate(90 35 35)" fill="#A240E5"/>
<path d="M54.5 39.7278C51.777 40.3498 49.395 41.6238 48.434 45.6128C47.33 41.7228 45.781 40.5628 42.43 39.8498C45.85 38.9758 47.715 38.1548 48.435 33.9048C49.458 37.5548 51.59 38.9988 54.5 39.7278ZM45.766 49.0098C41.828 47.9558 39.113 45.7428 38.487 41.5478C37.687 46.5518 34.532 48.2018 30.784 49.0098C35.191 49.6848 37.56 52.2368 38.366 56.2278C39.416 52.3518 41.803 49.7398 45.766 49.0098ZM39.514 30.7788V36.2828H34.01V30.7788H39.514Z" stroke="white" stroke-linecap="round" stroke-linejoin="round"/>
<path d="M34.0117 36.2822V41.7862H28.5077V36.2822H34.0117Z" stroke="white" stroke-linecap="round" stroke-linejoin="round"/>
<path d="M34.0097 30.779H28.5067V36.282H23.0027V41.786H20.5017C19.7055 41.786 18.9419 41.4697 18.3789 40.9067C17.816 40.3437 17.4997 39.5802 17.4997 38.784V22.774C17.4997 21.9778 17.816 21.2142 18.3789 20.6512C18.9419 20.0883 19.7055 19.772 20.5017 19.772H36.5117C37.3077 19.772 38.0711 20.0881 38.6341 20.6509C39.197 21.2137 39.5134 21.977 39.5137 22.773V25.275H34.0107L34.0097 30.779Z" stroke="white" stroke-linecap="round" stroke-linejoin="round"/>
<circle cx="35" cy="35" r="35" transform="rotate(90 35 35)" fill="#A240E5"/>
<path d="M48 46C48 45.235 47.7 44.483 47.124 43.906L37.25 34L37.03 33.78L36.717 33.72L33.217 33.03L31.749 32.72L32.059 34.187L32.749 37.687L32.809 38L33.029 38.22L42.935 48.094C43.35 48.5075 43.8781 48.789 44.4528 48.903C45.0274 49.0169 45.623 48.9582 46.1644 48.7343C46.7057 48.5104 47.1687 48.1313 47.495 47.6447C47.8213 47.1581 47.9963 46.5859 47.998 46H48ZM46.06 46C46.06 46.235 45.94 46.464 45.717 46.688C45.271 47.134 44.789 47.134 44.342 46.688L34.656 37L34.312 35.28L36.032 35.625L45.72 45.313C45.943 45.536 46.063 45.765 46.063 46H46.06ZM44.03 25H24.03V45H37.218L35.218 43H26.03V27H42.03V36.188L44.03 38.188V25Z" fill="white"/>
<circle cx="35" cy="35" r="35" transform="rotate(90 35 35)" fill="#A240E5"/>
<path d="M38.7492 32.5C38.7492 31.125 37.5992 30 36.1867 30C35.4742 30 34.8492 30.275 34.3742 30.7375L29.9992 35L34.3742 39.275C34.8367 39.725 35.4867 40 36.1867 40C37.5992 40 38.7492 38.875 38.7492 37.5C38.7492 36.825 38.4617 36.1875 37.9992 35.7375L37.2492 35L37.9867 34.275C38.2258 34.0449 38.4164 33.7694 38.5473 33.4645C38.6783 33.1597 38.7469 32.8318 38.7492 32.5ZM49.1992 35L42.1367 46.2875C41.6992 47.0125 40.9117 47.5 39.9992 47.5H27.4992C26.1242 47.5 24.9992 46.375 24.9992 45V25C24.9992 23.625 26.1242 22.5 27.4992 22.5H39.9992C40.9117 22.5 41.6992 22.9875 42.1367 23.7125L49.1992 35ZM37.4992 25H27.4992V45H37.4992L35.9367 42.5H36.1867C36.8742 42.5 37.5617 42.35 38.1867 42.0875L39.9992 45L46.2492 35L39.9992 25L38.1867 27.9125C37.5617 27.65 36.8742 27.5 36.1867 27.5H35.9367L37.4992 25Z" fill="white"/>
<circle cx="35" cy="35" r="35" transform="rotate(90 35 35)" fill="#A240E5"/>
<path d="M37.5 42.5V37.5H42.5C43.163 37.5 43.7989 37.2366 44.2678 36.7678C44.7366 36.2989 45 35.663 45 35C45 34.337 44.7366 33.7011 44.2678 33.2322C43.7989 32.7634 43.163 32.5 42.5 32.5L37.5 32.5887V27.5C37.5 26.837 37.2366 26.2011 36.7678 25.7322C36.2989 25.2634 35.663 25 35 25C34.337 25 33.7011 25.2634 33.2322 25.7322C32.7634 26.2011 32.5 26.837 32.5 27.5L32.5887 32.5887L27.5 32.5C26.837 32.5 26.2011 32.7634 25.7322 33.2322C25.2634 33.7011 25 34.337 25 35C25 35.663 25.2634 36.2989 25.7322 36.7678C26.2011 37.2366 26.837 37.5 27.5 37.5H32.5887L32.5 42.5C32.5 43.163 32.7634 43.7989 33.2322 44.2678C33.7011 44.7366 34.337 45 35 45C35.663 45 36.2989 44.7366 36.7678 44.2678C37.2366 43.7989 37.5 43.163 37.5 42.5Z" fill="white"/>
</svg>