<svg width="70" height="70" viewBox="0 0 70 70" fill="none" xmlns="http://www.w3.org/2000/svg">
<circle cx="35" cy="35" r="35" transform="rotate(90 35 35)" fill="#A240E5"/>
<path d="M40.6202 14.6562C41.2033 17.2091 42.3977 19.4422 46.1373 20.3431C42.4905 21.3781 41.403 22.8303 40.7345 25.9719C39.9152 22.7656 39.1455 21.0172 35.1611 20.3422C38.583 19.3831 39.9367 17.3844 40.6202 14.6562ZM49.322 22.8444C48.3339 26.5363 46.2592 29.0816 42.3264 29.6684C47.0177 30.4184 48.5645 33.3762 49.322 36.89C49.9548 32.7584 52.3473 30.5375 56.0889 29.7819C52.4552 28.7975 50.0064 26.5597 49.322 22.8444ZM32.2305 28.7056H37.3905V33.8656H32.2305V28.7056Z" stroke="white" stroke-width="2" stroke-linecap="round" stroke-linejoin="round"/>
<path d="M37.3887 33.8647H42.5487V39.0247H37.3887V33.8647Z" stroke="white" stroke-width="2" stroke-linecap="round" stroke-linejoin="round"/>
<path d="M32.2312 33.8656V39.0246H37.3902V44.1846H42.5502V46.5293C42.5502 47.2757 42.2537 47.9916 41.7259 48.5194C41.1981 49.0472 40.4823 49.3437 39.7359 49.3437H24.7265C23.9801 49.3437 23.2642 49.0472 22.7364 48.5194C22.2086 47.9916 21.9121 47.2757 21.9121 46.5293V31.5199C21.9121 30.7737 22.2085 30.058 22.7361 29.5302C23.2637 29.0024 23.9793 28.7058 24.7255 28.7056H27.0712V33.8646L32.2312 33.8656Z" stroke="white" stroke-width="2" stroke-linecap="round" stroke-linejoin="round"/>
</svg>