<svg width="292" height="254" viewBox="0 0 292 254" fill="none" xmlns="http://www.w3.org/2000/svg">
<circle cx="146" cy="100" r="100" transform="rotate(90 146 100)" fill="#A240E5"/>
<path d="M143.369 131.947H106.527C103.735 131.947 101.057 130.838 99.0833 128.864C97.1093 126.89 96.0002 124.213 96.0002 121.421V63.5263C96.0002 60.7346 97.1093 58.0572 99.0833 56.0831C101.057 54.109 103.735 53 106.527 53H127.579L143.369 68.7895H180.211C183.003 68.7895 185.68 69.8985 187.654 71.8726C189.628 73.8466 190.737 76.524 190.737 79.3158V97.7368M164.421 131.947H196M180.211 116.158V147.737" stroke="white" stroke-width="3" stroke-linecap="round" stroke-linejoin="round"/>
<path d="M1.536 229.8C1.536 227.603 2.016 225.64 2.976 223.912C3.936 222.163 5.248 220.808 6.912 219.848C8.576 218.867 10.432 218.376 12.48 218.376C14.976 218.376 17.1093 218.973 18.88 220.168C20.672 221.341 21.9733 223.005 22.784 225.16H20.16C19.52 223.645 18.5387 222.461 17.216 221.608C15.9147 220.755 14.336 220.328 12.48 220.328C10.8373 220.328 9.35467 220.712 8.032 221.48C6.73067 222.248 5.70667 223.357 4.96 224.808C4.21333 226.237 3.84 227.901 3.84 229.8C3.84 231.699 4.21333 233.363 4.96 234.792C5.70667 236.221 6.73067 237.32 8.032 238.088C9.35467 238.856 10.8373 239.24 12.48 239.24C14.336 239.24 15.9147 238.824 17.216 237.992C18.5387 237.139 19.52 235.965 20.16 234.472H22.784C21.9733 236.605 20.672 238.259 18.88 239.432C17.088 240.605 14.9547 241.192 12.48 241.192C10.432 241.192 8.576 240.712 6.912 239.752C5.248 238.771 3.936 237.416 2.976 235.688C2.016 233.96 1.536 231.997 1.536 229.8ZM29.4875 226.632C29.9782 225.544 30.7248 224.701 31.7275 224.104C32.7515 223.507 33.9995 223.208 35.4715 223.208V225.544H34.8635C33.2422 225.544 31.9408 225.981 30.9595 226.856C29.9782 227.731 29.4875 229.192 29.4875 231.24V241H27.2475V223.528H29.4875V226.632ZM54.6493 231.368C54.6493 232.136 54.6279 232.723 54.5853 233.128H40.0893C40.1533 234.451 40.4733 235.581 41.0493 236.52C41.6253 237.459 42.3826 238.173 43.3213 238.664C44.2599 239.133 45.2839 239.368 46.3933 239.368C47.8439 239.368 49.0599 239.016 50.0413 238.312C51.0439 237.608 51.7053 236.659 52.0253 235.464H54.3933C53.9666 237.171 53.0493 238.568 51.6413 239.656C50.2546 240.723 48.5053 241.256 46.3933 241.256C44.7506 241.256 43.2786 240.893 41.9773 240.168C40.6759 239.421 39.6519 238.376 38.9053 237.032C38.1799 235.667 37.8173 234.077 37.8173 232.264C37.8173 230.451 38.1799 228.861 38.9053 227.496C39.6306 226.131 40.6439 225.085 41.9453 224.36C43.2466 223.635 44.7293 223.272 46.3933 223.272C48.0573 223.272 49.5079 223.635 50.7453 224.36C52.0039 225.085 52.9639 226.067 53.6253 227.304C54.3079 228.52 54.6493 229.875 54.6493 231.368ZM52.3773 231.304C52.3986 230.003 52.1319 228.893 51.5773 227.976C51.0439 227.059 50.3079 226.365 49.3693 225.896C48.4306 225.427 47.4066 225.192 46.2973 225.192C44.6333 225.192 43.2146 225.725 42.0413 226.792C40.8679 227.859 40.2173 229.363 40.0893 231.304H52.3773ZM57.7235 232.232C57.7235 230.44 58.0755 228.872 58.7795 227.528C59.5048 226.163 60.4968 225.117 61.7555 224.392C63.0355 223.645 64.4755 223.272 66.0755 223.272C67.7395 223.272 69.1688 223.656 70.3635 224.424C71.5795 225.192 72.4542 226.173 72.9875 227.368V223.528H75.2275V241H72.9875V237.128C72.4328 238.323 71.5475 239.315 70.3315 240.104C69.1368 240.872 67.7075 241.256 66.0435 241.256C64.4648 241.256 63.0355 240.883 61.7555 240.136C60.4968 239.389 59.5048 238.333 58.7795 236.968C58.0755 235.603 57.7235 234.024 57.7235 232.232ZM72.9875 232.264C72.9875 230.856 72.6995 229.619 72.1235 228.552C71.5475 227.485 70.7582 226.664 69.7555 226.088C68.7742 225.512 67.6862 225.224 66.4915 225.224C65.2542 225.224 64.1448 225.501 63.1635 226.056C62.1822 226.611 61.4035 227.421 60.8275 228.488C60.2728 229.533 59.9955 230.781 59.9955 232.232C59.9955 233.661 60.2728 234.92 60.8275 236.008C61.4035 237.075 62.1822 237.896 63.1635 238.472C64.1448 239.027 65.2542 239.304 66.4915 239.304C67.6862 239.304 68.7742 239.016 69.7555 238.44C70.7582 237.864 71.5475 237.043 72.1235 235.976C72.6995 234.909 72.9875 233.672 72.9875 232.264ZM83.2533 225.416V236.264C83.2533 237.331 83.4559 238.067 83.8613 238.472C84.2666 238.877 84.9813 239.08 86.0052 239.08H88.0533V241H85.6533C84.0746 241 82.9013 240.637 82.1333 239.912C81.3653 239.165 80.9813 237.949 80.9813 236.264V225.416H78.5493V223.528H80.9813V219.144H83.2533V223.528H88.0533V225.416H83.2533ZM107.556 231.368C107.556 232.136 107.534 232.723 107.492 233.128H92.9955C93.0595 234.451 93.3795 235.581 93.9555 236.52C94.5315 237.459 95.2888 238.173 96.2275 238.664C97.1662 239.133 98.1902 239.368 99.2995 239.368C100.75 239.368 101.966 239.016 102.948 238.312C103.95 237.608 104.612 236.659 104.932 235.464H107.3C106.873 237.171 105.956 238.568 104.548 239.656C103.161 240.723 101.412 241.256 99.2995 241.256C97.6568 241.256 96.1848 240.893 94.8835 240.168C93.5822 239.421 92.5582 238.376 91.8115 237.032C91.0862 235.667 90.7235 234.077 90.7235 232.264C90.7235 230.451 91.0862 228.861 91.8115 227.496C92.5368 226.131 93.5502 225.085 94.8515 224.36C96.1528 223.635 97.6355 223.272 99.2995 223.272C100.964 223.272 102.414 223.635 103.652 224.36C104.91 225.085 105.87 226.067 106.532 227.304C107.214 228.52 107.556 229.875 107.556 231.368ZM105.284 231.304C105.305 230.003 105.038 228.893 104.484 227.976C103.95 227.059 103.214 226.365 102.276 225.896C101.337 225.427 100.313 225.192 99.2035 225.192C97.5395 225.192 96.1208 225.725 94.9475 226.792C93.7742 227.859 93.1235 229.363 92.9955 231.304H105.284ZM137.299 241H135.059L122.675 222.184V241H120.435V218.632H122.675L135.059 237.416V218.632H137.299V241ZM158.181 231.368C158.181 232.136 158.159 232.723 158.117 233.128H143.621C143.685 234.451 144.005 235.581 144.581 236.52C145.157 237.459 145.914 238.173 146.853 238.664C147.791 239.133 148.815 239.368 149.925 239.368C151.375 239.368 152.591 239.016 153.573 238.312C154.575 237.608 155.237 236.659 155.557 235.464H157.925C157.498 237.171 156.581 238.568 155.173 239.656C153.786 240.723 152.037 241.256 149.925 241.256C148.282 241.256 146.81 240.893 145.509 240.168C144.207 239.421 143.183 238.376 142.437 237.032C141.711 235.667 141.349 234.077 141.349 232.264C141.349 230.451 141.711 228.861 142.437 227.496C143.162 226.131 144.175 225.085 145.477 224.36C146.778 223.635 148.261 223.272 149.925 223.272C151.589 223.272 153.039 223.635 154.277 224.36C155.535 225.085 156.495 226.067 157.157 227.304C157.839 228.52 158.181 229.875 158.181 231.368ZM155.909 231.304C155.93 230.003 155.663 228.893 155.109 227.976C154.575 227.059 153.839 226.365 152.901 225.896C151.962 225.427 150.938 225.192 149.829 225.192C148.165 225.192 146.746 225.725 145.573 226.792C144.399 227.859 143.749 229.363 143.621 231.304H155.909ZM185.319 223.528L179.847 241H177.607L172.775 226.344L167.943 241H165.671L160.199 223.528H162.471L166.823 238.728L171.719 223.528H173.959L178.791 238.76L183.111 223.528H185.319ZM209.25 218.632V220.488H199.394V228.84H207.714V230.696H199.394V241H197.154V218.632H209.25ZM220.583 241.256C218.94 241.256 217.458 240.893 216.135 240.168C214.834 239.421 213.799 238.376 213.031 237.032C212.284 235.667 211.911 234.077 211.911 232.264C211.911 230.451 212.295 228.872 213.063 227.528C213.831 226.163 214.876 225.117 216.199 224.392C217.522 223.645 219.004 223.272 220.647 223.272C222.29 223.272 223.772 223.645 225.095 224.392C226.439 225.117 227.484 226.163 228.231 227.528C228.999 228.872 229.383 230.451 229.383 232.264C229.383 234.056 228.999 235.635 228.231 237C227.463 238.365 226.407 239.421 225.063 240.168C223.719 240.893 222.226 241.256 220.583 241.256ZM220.583 239.304C221.735 239.304 222.802 239.048 223.783 238.536C224.764 238.003 225.554 237.213 226.151 236.168C226.77 235.101 227.079 233.8 227.079 232.264C227.079 230.728 226.78 229.437 226.183 228.392C225.586 227.325 224.796 226.536 223.815 226.024C222.834 225.491 221.767 225.224 220.615 225.224C219.463 225.224 218.396 225.491 217.415 226.024C216.434 226.536 215.644 227.325 215.047 228.392C214.471 229.437 214.183 230.728 214.183 232.264C214.183 233.8 214.471 235.101 215.047 236.168C215.644 237.213 216.423 238.003 217.383 238.536C218.364 239.048 219.431 239.304 220.583 239.304ZM235.706 217.32V241H233.466V217.32H235.706ZM239.755 232.232C239.755 230.44 240.117 228.872 240.843 227.528C241.568 226.163 242.56 225.117 243.819 224.392C245.099 223.645 246.539 223.272 248.139 223.272C249.675 223.272 251.061 223.645 252.299 224.392C253.536 225.139 254.443 226.109 255.019 227.304V217.32H257.259V241H255.019V237.096C254.485 238.312 253.611 239.315 252.395 240.104C251.179 240.872 249.749 241.256 248.107 241.256C246.507 241.256 245.067 240.883 243.787 240.136C242.528 239.389 241.536 238.333 240.811 236.968C240.107 235.603 239.755 234.024 239.755 232.232ZM255.019 232.264C255.019 230.856 254.731 229.619 254.155 228.552C253.579 227.485 252.789 226.664 251.787 226.088C250.805 225.512 249.717 225.224 248.523 225.224C247.285 225.224 246.176 225.501 245.195 226.056C244.213 226.611 243.435 227.421 242.859 228.488C242.304 229.533 242.027 230.781 242.027 232.232C242.027 233.661 242.304 234.92 242.859 236.008C243.435 237.075 244.213 237.896 245.195 238.472C246.176 239.027 247.285 239.304 248.523 239.304C249.717 239.304 250.805 239.016 251.787 238.44C252.789 237.864 253.579 237.043 254.155 235.976C254.731 234.909 255.019 233.672 255.019 232.264ZM278.181 231.368C278.181 232.136 278.159 232.723 278.117 233.128H263.621C263.685 234.451 264.005 235.581 264.581 236.52C265.157 237.459 265.914 238.173 266.853 238.664C267.791 239.133 268.815 239.368 269.925 239.368C271.375 239.368 272.591 239.016 273.573 238.312C274.575 237.608 275.237 236.659 275.557 235.464H277.925C277.498 237.171 276.581 238.568 275.173 239.656C273.786 240.723 272.037 241.256 269.925 241.256C268.282 241.256 266.81 240.893 265.509 240.168C264.207 239.421 263.183 238.376 262.437 237.032C261.711 235.667 261.349 234.077 261.349 232.264C261.349 230.451 261.711 228.861 262.437 227.496C263.162 226.131 264.175 225.085 265.477 224.36C266.778 223.635 268.261 223.272 269.925 223.272C271.589 223.272 273.039 223.635 274.277 224.36C275.535 225.085 276.495 226.067 277.157 227.304C277.839 228.52 278.181 229.875 278.181 231.368ZM275.909 231.304C275.93 230.003 275.663 228.893 275.109 227.976C274.575 227.059 273.839 226.365 272.901 225.896C271.962 225.427 270.938 225.192 269.829 225.192C268.165 225.192 266.746 225.725 265.573 226.792C264.399 227.859 263.749 229.363 263.621 231.304H275.909ZM284.519 226.632C285.009 225.544 285.756 224.701 286.759 224.104C287.783 223.507 289.031 223.208 290.503 223.208V225.544H289.895C288.273 225.544 286.972 225.981 285.991 226.856C285.009 227.731 284.519 229.192 284.519 231.24V241H282.279V223.528H284.519V226.632Z" fill="white"/>
</svg>
