<svg width="70" height="50" viewBox="0 0 70 50" fill="none" xmlns="http://www.w3.org/2000/svg">
<rect width="70" height="50" rx="25" fill="#A240E5"/>
<path fill-rule="evenodd" clip-rule="evenodd" d="M40.3233 28.9048C41.5703 27.2971 42.158 25.2748 41.9668 23.2492C41.7757 21.2237 40.82 19.347 39.2943 18.001C37.7685 16.6551 35.7873 15.9409 33.7537 16.0038C31.7201 16.0668 29.7869 16.9021 28.3473 18.3398C26.9065 19.7785 26.0684 21.7125 26.004 23.7476C25.9396 25.7828 26.6536 27.7659 28.0005 29.2929C29.3475 30.8199 31.226 31.7758 33.2533 31.9659C35.2806 32.1559 37.304 31.5658 38.9113 30.3158L38.9543 30.3608L43.1963 34.6038C43.2892 34.6967 43.3995 34.7704 43.5209 34.8207C43.6423 34.871 43.7724 34.8968 43.9038 34.8968C44.0352 34.8968 44.1653 34.871 44.2867 34.8207C44.4081 34.7704 44.5184 34.6967 44.6113 34.6038C44.7042 34.5109 44.7779 34.4006 44.8282 34.2792C44.8785 34.1578 44.9044 34.0277 44.9044 33.8963C44.9044 33.7649 44.8785 33.6348 44.8282 33.5134C44.7779 33.392 44.7042 33.2817 44.6113 33.1888L40.3683 28.9468C40.3537 28.9324 40.3387 28.9184 40.3233 28.9048ZM38.2473 19.7548C38.8119 20.3103 39.2609 20.972 39.5685 21.7019C39.8761 22.4318 40.0361 23.2154 40.0393 24.0074C40.0425 24.7994 39.8889 25.5843 39.5873 26.3166C39.2857 27.049 38.8421 27.7144 38.282 28.2745C37.7219 28.8345 37.0565 29.2782 36.3242 29.5798C35.5918 29.8814 34.807 30.035 34.0149 30.0318C33.2229 30.0286 32.4393 29.8686 31.7094 29.561C30.9796 29.2534 30.3178 28.8044 29.7623 28.2398C28.6522 27.1115 28.033 25.5902 28.0394 24.0074C28.0459 22.4246 28.6775 20.9084 29.7967 19.7892C30.916 18.67 32.4321 18.0383 34.0149 18.0319C35.5978 18.0254 37.119 18.6447 38.2473 19.7548Z" fill="white"/>
</svg>