<svg width="39" height="39" viewBox="0 0 39 39" fill="none" xmlns="http://www.w3.org/2000/svg">
<path d="M31.8053 1.30365C32.1881 0.898988 32.6481 0.575162 33.1581 0.351316C33.6681 0.12747 34.2179 0.00814833 34.7748 0.000402939C35.3318 -0.00734245 35.8846 0.096646 36.4007 0.306222C36.9168 0.515797 37.3856 0.826707 37.7794 1.22057C38.1733 1.61444 38.4842 2.08327 38.6938 2.59935C38.9034 3.11543 39.0073 3.66829 38.9996 4.22524C38.9919 4.7822 38.8725 5.33195 38.6487 5.842C38.4249 6.35206 38.101 6.81206 37.6964 7.19482L25.4864 19.405C25.4702 19.4211 25.4574 19.4403 25.4487 19.4614C25.4399 19.4825 25.4354 19.5051 25.4354 19.5279C25.4354 19.5508 25.4399 19.5734 25.4487 19.5945C25.4574 19.6156 25.4702 19.6347 25.4864 19.6509L37.6964 31.861C38.0886 32.2468 38.4005 32.7064 38.6142 33.2133C38.8278 33.7202 38.939 34.2644 38.9413 34.8145C38.9436 35.3647 38.837 35.9098 38.6276 36.4185C38.4182 36.9272 38.1101 37.3893 37.7212 37.7784C37.3322 38.1674 36.8701 38.4756 36.3615 38.6851C35.8529 38.8947 35.3078 39.0014 34.7577 38.9993C34.2076 38.9971 33.6633 38.886 33.1564 38.6725C32.6494 38.4589 32.1898 38.1471 31.8039 37.755L19.594 25.5448C19.5778 25.5286 19.5587 25.5158 19.5376 25.5071C19.5165 25.4983 19.4939 25.4938 19.471 25.4938C19.4482 25.4938 19.4256 25.4983 19.4045 25.5071C19.3834 25.5158 19.3642 25.5286 19.3481 25.5448L7.13813 37.755C6.75238 38.1472 6.29279 38.4591 5.78588 38.6728C5.27898 38.8865 4.73478 38.9977 4.18468 39C3.63458 39.0023 3.08947 38.8956 2.58079 38.6862C2.07211 38.4768 1.60993 38.1687 1.2209 37.7798C0.831871 37.3908 0.523699 36.9287 0.314159 36.4201C0.104619 35.9114 -0.00214231 35.3663 3.25717e-05 34.8162C0.00220745 34.2661 0.113276 33.7219 0.326831 33.2149C0.540387 32.708 0.852202 32.2483 1.24429 31.8624L13.4543 19.6523C13.4704 19.6361 13.4833 19.617 13.492 19.5959C13.5008 19.5748 13.5053 19.5522 13.5053 19.5293C13.5053 19.5065 13.5008 19.4839 13.492 19.4628C13.4833 19.4417 13.4704 19.4225 13.4543 19.4064L1.24429 7.19621C0.473207 6.41263 0.04298 5.3561 0.0473264 4.25675C0.0516727 3.15741 0.49024 2.10431 1.2675 1.32685C2.04476 0.549399 3.09773 0.110576 4.19706 0.10597C5.29639 0.101365 6.353 0.53135 7.13674 1.30227L19.3467 13.5124C19.3628 13.5286 19.382 13.5414 19.4031 13.5502C19.4242 13.5589 19.4468 13.5635 19.4696 13.5635C19.4925 13.5635 19.5151 13.5589 19.5362 13.5502C19.5573 13.5414 19.5764 13.5286 19.5926 13.5124L31.8053 1.30365Z" fill="#9C9C9C"/>
</svg>