<svg width="70" height="70" viewBox="0 0 70 70" fill="none" xmlns="http://www.w3.org/2000/svg">
<circle cx="35" cy="35" r="35" transform="rotate(90 35 35)" fill="#A240E5"/>
<path d="M42.1607 38.3492L38.5337 34.9075L41.9754 31.2805C42.4318 30.7995 42.6785 30.157 42.6611 29.4942C42.6437 28.8314 42.3638 28.2026 41.8828 27.7462C41.4018 27.2898 40.7593 27.0431 40.0964 27.0605C39.4336 27.0779 38.8049 27.3578 38.3485 27.8388L34.9712 31.5268L31.2798 28.0241C30.7989 27.5677 30.1563 27.321 29.4935 27.3384C28.8307 27.3558 28.2019 27.6357 27.7455 28.1167C27.2891 28.5976 27.0425 29.2402 27.0598 29.903C27.0772 30.5658 27.3572 31.1946 27.8381 31.651L31.5905 35.0894L28.0234 38.7196C27.567 39.2006 27.3203 39.8432 27.3377 40.506C27.3551 41.1688 27.635 41.7976 28.116 42.254C28.597 42.7104 29.2395 42.957 29.9023 42.9396C30.5652 42.9223 31.1939 42.6423 31.6503 42.1613L35.1531 38.47L38.719 41.9761C39.1999 42.4325 39.8425 42.6791 40.5053 42.6618C41.1681 42.6444 41.7969 42.3644 42.2533 41.8835C42.7097 41.4025 42.9563 40.7599 42.939 40.0971C42.9216 39.4343 42.6416 38.8055 42.1607 38.3492Z" fill="white"/>
</svg>
