<svg width="70" height="70" viewBox="0 0 70 70" fill="none" xmlns="http://www.w3.org/2000/svg">
<circle cx="35" cy="35" r="35" transform="rotate(90 35 35)" fill="#A240E5"/>
<path d="M45.5 21.5C44.735 21.5 43.983 21.8 43.406 22.376L33.5 32.25L33.28 32.47L33.22 32.783L32.53 36.283L32.22 37.751L33.687 37.441L37.187 36.751L37.5 36.691L37.72 36.471L47.594 26.565C48.0075 26.15 48.289 25.6219 48.403 25.0472C48.5169 24.4726 48.4582 23.877 48.2343 23.3356C48.0104 22.7943 47.6313 22.3313 47.1447 22.005C46.6581 21.6787 46.0859 21.5037 45.5 21.502V21.5ZM45.5 23.44C45.735 23.44 45.964 23.56 46.188 23.783C46.634 24.229 46.634 24.711 46.188 25.158L36.5 34.844L34.78 35.188L35.125 33.468L44.813 23.78C45.036 23.557 45.265 23.437 45.5 23.437V23.44ZM24.5 25.47V45.47H44.5V32.282L42.5 34.282V43.47H26.5V27.47H35.688L37.688 25.47H24.5Z" fill="white"/>
</svg>