<svg viewBox="0 0 15 15" fill="none" xmlns="http://www.w3.org/2000/svg" xmlns:anim="http://www.w3.org/2000/anim" anim="" anim:transform-origin="50% 50%" anim:duration="1" anim:ease="ease-in-out">
    <path id="Vector" fill-rule="evenodd" clip-rule="evenodd" d="M11.3348 10.2163C12.3216 8.94357 12.7866 7.34257 12.6354 5.73899C12.4841 4.13541 11.7278 2.64972 10.5204 1.58416C9.31305 0.518596 7.74523 -0.0467848 6.13594 0.00303334C4.52665 0.0528514 2.99677 0.714127 1.85755 1.85233C0.717335 2.99132 0.0541617 4.5224 0.00317344 6.13355C-0.0478148 7.74471 0.517219 9.31469 1.58313 10.5236C2.64904 11.7324 4.13561 12.4892 5.7399 12.6397C7.34418 12.7901 8.94545 12.3229 10.2174 11.3333L10.2514 11.369L13.6083 14.728C13.6819 14.8016 13.7691 14.8599 13.8652 14.8997C13.9613 14.9395 14.0642 14.96 14.1682 14.96C14.2722 14.96 14.3751 14.9395 14.4712 14.8997C14.5673 14.8599 14.6546 14.8016 14.7281 14.728C14.8016 14.6544 14.8599 14.5671 14.8997 14.471C14.9395 14.3749 14.96 14.2719 14.96 14.1679C14.96 14.0639 14.9395 13.9609 14.8997 13.8648C14.8599 13.7687 14.8016 13.6813 14.7281 13.6078L11.3704 10.2495C11.3588 10.2381 11.3469 10.227 11.3348 10.2163ZM9.69193 2.97254C10.1387 3.41229 10.4941 3.93619 10.7375 4.51402C10.9809 5.09185 11.1075 5.71217 11.11 6.3392C11.1126 6.96622 10.991 7.58755 10.7523 8.16735C10.5137 8.74714 10.1626 9.27391 9.71938 9.71729C9.27618 10.1607 8.74961 10.5119 8.17005 10.7507C7.59049 10.9894 6.96941 11.1111 6.34263 11.1085C5.71585 11.1059 5.09578 10.9793 4.51818 10.7358C3.94058 10.4923 3.41689 10.1368 2.97731 9.68983C2.09885 8.79658 1.60879 7.59226 1.61389 6.3392C1.61899 5.08613 2.11883 3.88584 3.00454 2.99978C3.89025 2.11372 5.09006 1.61368 6.34263 1.60858C7.5952 1.60347 8.79904 2.09372 9.69193 2.97254Z" fill="white"></path>
</svg>