<svg viewBox="0 0 15 15" fill="none" xmlns="http://www.w3.org/2000/svg" xmlns:anim="http://www.w3.org/2000/anim" anim="" anim:transform-origin="50% 50%" anim:duration="1" anim:ease="ease-in-out">
    <path id="Vector" d="M14.9067 5.63062C14.842 5.42378 14.7201 5.24125 14.5561 5.10576C14.3921 4.97028 14.1934 4.88783 13.9846 4.86868L10.019 4.51403L8.46459 0.679376C8.38366 0.478165 8.24715 0.306293 8.07225 0.1854C7.89735 0.0645076 7.69188 0 7.48172 0C7.27155 0 7.06608 0.0645076 6.89118 0.1854C6.71629 0.306293 6.57978 0.478165 6.49885 0.679376L4.94909 4.51403L0.978879 4.87076C0.769242 4.88903 0.569471 4.97111 0.40462 5.10669C0.239768 5.24228 0.117174 5.42534 0.0522111 5.63291C-0.012752 5.84049 -0.0171923 6.06334 0.0394471 6.27352C0.0960866 6.48371 0.211284 6.67187 0.370594 6.8144L3.38264 9.54493L2.47989 13.5998C2.43216 13.812 2.44578 14.0341 2.51905 14.2383C2.59233 14.4426 2.722 14.6198 2.89187 14.748C3.06173 14.8762 3.26425 14.9495 3.4741 14.959C3.68395 14.9684 3.89182 14.9134 4.07172 14.8009L7.47704 12.6537L10.8897 14.8009C11.0696 14.9134 11.2775 14.9684 11.4873 14.959C11.6972 14.9495 11.8997 14.8762 12.0696 14.748C12.2394 14.6198 12.3691 14.4426 12.4424 14.2383C12.5157 14.0341 12.5293 13.812 12.4815 13.5998L11.5795 9.54077L14.5908 6.8144C14.7501 6.67137 14.8651 6.48268 14.9213 6.27205C14.9775 6.06142 14.9724 5.83826 14.9067 5.63062ZM13.8904 5.97696L10.879 8.70333C10.7325 8.83558 10.6234 9.00679 10.5637 9.19853C10.5039 9.39027 10.4957 9.59528 10.5398 9.79152L11.4446 13.8534L8.03458 11.7061C7.86821 11.601 7.67718 11.5454 7.48238 11.5454C7.28759 11.5454 7.09656 11.601 6.93019 11.7061L3.52486 13.8534L4.4236 9.79429C4.46777 9.59805 4.45953 9.39304 4.39976 9.2013C4.33999 9.00956 4.23097 8.83835 4.0844 8.7061L1.07169 5.98111C1.07145 5.97904 1.07145 5.97695 1.07169 5.97488L5.04057 5.61884C5.23434 5.60113 5.41977 5.52886 5.57686 5.40984C5.73394 5.29083 5.85673 5.12958 5.93196 4.94349L7.48172 1.11368L9.03081 4.94349C9.10604 5.12958 9.22882 5.29083 9.38591 5.40984C9.543 5.52886 9.72843 5.60113 9.9222 5.61884L13.8917 5.97488V5.97973L13.8904 5.97696Z" fill="#725AFF"></path>
</svg>