<svg viewBox="0 0 15 15" fill="none" xmlns="http://www.w3.org/2000/svg" xmlns:anim="http://www.w3.org/2000/anim" anim="" anim:transform-origin="50% 50%" anim:duration="1" anim:ease="ease-in-out">
    <g id="Component 87">
        <path id="Vector" d="M14.6252 6.83262L11.6072 9.56628L12.5113 13.6362C12.5591 13.849 12.5454 14.0717 12.472 14.2764C12.3986 14.4812 12.2686 14.6589 12.0984 14.7874C11.9281 14.9159 11.7252 14.9895 11.5148 14.999C11.3045 15.0084 11.0962 14.9533 10.9159 14.8405L7.49565 12.6875L4.08276 14.8405C3.90246 14.9533 3.69413 15.0084 3.48382 14.999C3.2735 14.9895 3.07054 14.9159 2.9003 14.7874C2.73005 14.6589 2.60009 14.4812 2.52665 14.2764C2.45322 14.0717 2.43957 13.849 2.48741 13.6362L3.39015 9.57045L0.371417 6.83262C0.211753 6.6897 0.0962999 6.50104 0.0395347 6.2903C-0.0172305 6.07955 -0.0127803 5.8561 0.052327 5.64797C0.117434 5.43984 0.240301 5.25629 0.405518 5.12035C0.570736 4.9844 0.770949 4.9021 0.981052 4.88378L4.96008 4.5261L6.51327 0.681193C6.59438 0.479444 6.7312 0.307112 6.90648 0.185896C7.08177 0.06468 7.28769 0 7.49833 0C7.70896 0 7.91489 0.06468 8.09017 0.185896C8.26546 0.307112 8.40227 0.479444 8.48338 0.681193L10.0413 4.5261L14.0189 4.88378C14.2291 4.9021 14.4293 4.9844 14.5945 5.12035C14.7597 5.25629 14.8826 5.43984 14.9477 5.64797C15.0128 5.8561 15.0172 6.07955 14.9605 6.2903C14.9037 6.50104 14.7882 6.6897 14.6286 6.83262H14.6252Z" fill="#725AFF"></path>
    </g>
</svg>