<svg width="201" height="200" viewBox="0 0 201 200" fill="none" xmlns="http://www.w3.org/2000/svg">
<path d="M75.3333 25C77.165 24.9998 78.9457 25.6032 80.4 26.7167L81.2333 27.4417L103.783 50H158.667C165.043 49.9996 171.179 52.436 175.819 56.8107C180.458 61.1854 183.251 67.1676 183.625 73.5333L183.667 75V141.667C183.667 148.043 181.231 154.179 176.856 158.819C172.481 163.458 166.499 166.251 160.133 166.625L158.667 166.667H42C35.6232 166.667 29.4874 164.231 24.8478 159.856C20.2083 155.481 17.4158 149.499 17.0417 143.133L17 141.667V50C16.9996 43.6232 19.436 37.4874 23.8107 32.8478C28.1854 28.2083 34.1676 25.4158 40.5333 25.0417L42 25H75.3333Z" fill="black"/>
</svg>
