<svg width="70" height="70" viewBox="0 0 70 70" fill="none" xmlns="http://www.w3.org/2000/svg">
<circle cx="35" cy="35" r="35" transform="rotate(90 35 35)" fill="#A240E5"/>
<path d="M32.5 31.2498C31.125 31.2498 30 32.3998 30 33.8123C30 34.5248 30.275 35.1498 30.7375 35.6248L35 39.9998L39.275 35.6248C39.725 35.1623 40 34.5123 40 33.8123C40 32.3998 38.875 31.2498 37.5 31.2498C36.825 31.2498 36.1875 31.5373 35.7375 31.9998L35 32.7498L34.275 32.0123C34.0449 31.7733 33.7694 31.5827 33.4645 31.4517C33.1597 31.3208 32.8318 31.2521 32.5 31.2498ZM35 20.7998L46.2875 27.8623C47.0125 28.2998 47.5 29.0873 47.5 29.9998V42.4998C47.5 43.8748 46.375 44.9998 45 44.9998H25C23.625 44.9998 22.5 43.8748 22.5 42.4998V29.9998C22.5 29.0873 22.9875 28.2998 23.7125 27.8623L35 20.7998ZM25 32.4998V42.4998H45V32.4998L42.5 34.0623V33.8123C42.5 33.1248 42.35 32.4373 42.0875 31.8123L45 29.9998L35 23.7498L25 29.9998L27.9125 31.8123C27.65 32.4373 27.5 33.1248 27.5 33.8123V34.0623L25 32.4998Z" fill="white"/>
</svg>