<svg width="200" height="200" viewBox="0 0 200 200" fill="none" xmlns="http://www.w3.org/2000/svg">
<g clip-path="url(#clip0_135_5314)">
<path d="M74.6673 25C76.499 24.9998 78.2797 25.6032 79.734 26.7167L80.5673 27.4417L103.117 50H158.001C164.377 49.9996 170.513 52.436 175.153 56.8107C179.792 61.1854 182.585 67.1676 182.959 73.5333L183.001 75V141.667C183.001 148.043 180.565 154.179 176.19 158.819C171.815 163.458 165.833 166.251 159.467 166.625L158.001 166.667H41.334C34.9572 166.667 28.8214 164.231 24.1818 159.856C19.5423 155.481 16.7498 149.499 16.3757 143.133L16.334 141.667V50C16.3336 43.6232 18.77 37.4874 23.1447 32.8478C27.5193 28.2083 33.5015 25.4158 39.8673 25.0417L41.334 25H74.6673Z" fill="black"/>
<path d="M98.9474 112.579H84.2105C83.0938 112.579 82.0229 112.135 81.2332 111.346C80.4436 110.556 80 109.485 80 108.368V85.2105C80 84.0938 80.4436 83.0229 81.2332 82.2332C82.0229 81.4436 83.0938 81 84.2105 81H92.6316L98.9474 87.3158H113.684C114.801 87.3158 115.872 87.7594 116.662 88.549C117.451 89.3387 117.895 90.4096 117.895 91.5263V98.8947M107.368 112.579H120M113.684 106.263V118.895" stroke="white" stroke-width="2" stroke-linecap="round" stroke-linejoin="round"/>
</g>
<defs>
<clipPath id="clip0_135_5314">
<rect width="200" height="200" fill="white"/>
</clipPath>
</defs>
</svg>
