<svg width="70" height="70" viewBox="0 0 70 70" fill="none" xmlns="http://www.w3.org/2000/svg">
<circle cx="35" cy="35" r="35" transform="rotate(90 35 35)" fill="#A240E5"/>
<path d="M31.3333 25.6667H28.6667C27.9594 25.6667 27.2811 25.9476 26.781 26.4477C26.281 26.9478 26 27.6261 26 28.3333V44.3333C26 45.0406 26.281 45.7189 26.781 46.219C27.2811 46.719 27.9594 47 28.6667 47H42C42.7072 47 43.3855 46.719 43.8856 46.219C44.3857 45.7189 44.6667 45.0406 44.6667 44.3333V28.3333C44.6667 27.6261 44.3857 26.9478 43.8856 26.4477C43.3855 25.9476 42.7072 25.6667 42 25.6667H39.3333M31.3333 25.6667C31.3333 24.9594 31.6143 24.2811 32.1144 23.781C32.6145 23.281 33.2928 23 34 23H36.6667C37.3739 23 38.0522 23.281 38.5523 23.781C39.0524 24.2811 39.3333 24.9594 39.3333 25.6667M31.3333 25.6667C31.3333 26.3739 31.6143 27.0522 32.1144 27.5523C32.6145 28.0524 33.2928 28.3333 34 28.3333H36.6667C37.3739 28.3333 38.0522 28.0524 38.5523 27.5523C39.0524 27.0522 39.3333 26.3739 39.3333 25.6667M31.3333 35H39.3333M31.3333 40.3333H39.3333" stroke="white" stroke-width="2" stroke-linecap="round" stroke-linejoin="round"/>
</svg>