<svg width="37" height="36" viewBox="0 0 37 36" fill="none" xmlns="http://www.w3.org/2000/svg">
<g id="Frame 3">
<g id="Group 1">
<ellipse id="Ellipse 1" cx="18.5" cy="18" rx="18.5" ry="18" fill="#725AFF"/>
<g id="Group">
<path id="Vector" fill-rule="evenodd" clip-rule="evenodd" d="M24.0599 16.938C24.3408 17.2192 24.4986 17.6005 24.4986 17.998C24.4986 18.3955 24.3408 18.7767 24.0599 19.058L18.4039 24.716C18.1225 24.9972 17.7409 25.1552 17.343 25.1551C16.9452 25.155 16.5637 24.9969 16.2824 24.7155C16.0011 24.4341 15.8432 24.0525 15.8433 23.6546C15.8434 23.2567 16.0015 22.8752 16.2829 22.594L20.8789 17.998L16.2829 13.402C16.0095 13.1192 15.8581 12.7404 15.8614 12.3471C15.8646 11.9538 16.0222 11.5775 16.3002 11.2992C16.5781 11.021 16.9543 10.863 17.3476 10.8594C17.7409 10.8558 18.1199 11.0069 18.4029 11.28L24.0609 16.937L24.0599 16.938Z" fill="white"/>
</g>
</g>
</g>
</svg>
