<svg viewBox="0 0 15 15" fill="none" xmlns="http://www.w3.org/2000/svg" xmlns:anim="http://www.w3.org/2000/anim" anim="" anim:transform-origin="50% 50%" anim:duration="1" anim:ease="ease-in-out">
    <path id="Vector" fill-rule="evenodd" clip-rule="evenodd" d="M7.4408 0H7.52013C9.12687 0 10.3857 4.14763e-08 11.3682 0.132213C12.373 0.267209 13.1663 0.549727 13.7891 1.17182C14.4119 1.79462 14.6937 2.58789 14.8287 3.59341C14.9609 4.57526 14.9609 5.83407 14.9609 7.4408V7.50204C14.9609 8.83043 14.9609 9.91736 14.8886 10.8025C14.8162 11.6932 14.668 12.4357 14.3354 13.0536C14.1892 13.3257 14.0083 13.5699 13.7891 13.7891C13.1663 14.4119 12.373 14.6937 11.3675 14.8287C10.3857 14.9609 9.12687 14.9609 7.52013 14.9609H7.4408C5.83407 14.9609 4.57526 14.9609 3.59271 14.8287C2.58789 14.6937 1.79462 14.4112 1.17182 13.7891C0.620009 13.2373 0.334708 12.5505 0.183706 11.6974C0.0340971 10.8602 0.00695856 9.81855 0.0013917 8.52565C-1.79839e-08 8.19651 0 7.84858 0 7.48117V7.4408C0 5.83407 4.14763e-08 4.57526 0.132213 3.59271C0.267209 2.58789 0.549727 1.79462 1.17182 1.17182C1.79462 0.549032 2.58789 0.267209 3.59341 0.132213C4.57526 4.14763e-08 5.83407 0 7.4408 0ZM3.73188 1.16626C2.84258 1.28594 2.30607 1.51419 1.91013 1.91013C1.51349 2.30677 1.28594 2.84258 1.16626 3.73258C1.04518 4.63719 1.04379 5.82572 1.04379 7.48047V8.06777L1.74034 7.4582C2.04587 7.19075 2.44164 7.04943 2.84747 7.06286C3.2533 7.0763 3.63886 7.24349 3.92603 7.53057L6.91126 10.5158C7.14291 10.7474 7.44884 10.8899 7.7752 10.9181C8.10156 10.9464 8.42742 10.8586 8.69544 10.6703L8.9028 10.5242C9.28948 10.2524 9.75691 10.12 10.2286 10.1484C10.7004 10.1769 11.1485 10.3645 11.4997 10.6807L13.469 12.4531C13.668 12.0369 13.7856 11.49 13.8483 10.7183C13.9165 9.87979 13.9172 8.83461 13.9172 7.48047C13.9172 5.82572 13.9158 4.63719 13.7947 3.73258C13.675 2.84258 13.4468 2.30607 13.0508 1.90943C12.6542 1.51349 12.1184 1.28594 11.2284 1.16626C10.3237 1.04518 9.13522 1.04379 7.48047 1.04379C5.82572 1.04379 4.6365 1.04518 3.73188 1.16626Z" fill="#725AFF"></path>
</svg>